<?xml version="1.0" encoding="UTF-8" standalone="no"?>
<!-- Created with Inkscape (http://www.inkscape.org/) -->

<svg
   width="97.718605mm"
   height="230.35532mm"
   viewBox="0 0 97.718603 230.35532"
   version="1.1"
   id="svg1"
   xml:space="preserve"
   inkscape:version="1.4 (1:1.4+202410161351+e7c3feb100)"
   sodipodi:docname="person-icon-pink.svg"
   xmlns:inkscape="http://www.inkscape.org/namespaces/inkscape"
   xmlns:sodipodi="http://sodipodi.sourceforge.net/DTD/sodipodi-0.dtd"
   xmlns="http://www.w3.org/2000/svg"
   xmlns:svg="http://www.w3.org/2000/svg"><sodipodi:namedview
     id="namedview1"
     pagecolor="#ffffff"
     bordercolor="#666666"
     borderopacity="1.0"
     inkscape:showpageshadow="2"
     inkscape:pageopacity="0.0"
     inkscape:pagecheckerboard="0"
     inkscape:deskcolor="#d1d1d1"
     inkscape:document-units="mm"
     inkscape:zoom="0.1767767"
     inkscape:cx="-93.338095"
     inkscape:cy="1643.3162"
     inkscape:window-width="1854"
     inkscape:window-height="1003"
     inkscape:window-x="0"
     inkscape:window-y="0"
     inkscape:window-maximized="1"
     inkscape:current-layer="layer1"
     showgrid="false" /><defs
     id="defs1"><clipPath
       clipPathUnits="userSpaceOnUse"
       id="clipPath2"><rect
         style="fill:#818181;fill-opacity:0.511529;stroke:none;stroke-width:0.564999;stroke-linecap:round;stroke-linejoin:round;stroke-opacity:1;paint-order:stroke markers fill"
         id="rect3"
         width="104.39548"
         height="230.86745"
         x="304.13977"
         y="54.463474" /></clipPath><clipPath
       clipPathUnits="userSpaceOnUse"
       id="clipPath5"><rect
         style="fill:#818181;fill-opacity:0.511529;stroke:none;stroke-width:0.564999;stroke-linecap:round;stroke-linejoin:round;stroke-opacity:1;paint-order:stroke markers fill"
         id="rect5"
         width="117.69286"
         height="197.09744"
         x="43.468315"
         y="62.593887" /></clipPath><clipPath
       clipPathUnits="userSpaceOnUse"
       id="clipPath1"><rect
         style="fill:#ffc0cb;stroke-width:0.564999;stroke-linecap:round;stroke-linejoin:round;paint-order:stroke markers fill"
         id="rect2"
         width="103.27294"
         height="230.68034"
         x="50.294754"
         y="28.322325" /></clipPath><clipPath
       clipPathUnits="userSpaceOnUse"
       id="clipPath3"><rect
         style="fill:#ffc0cb;stroke-width:0.564999;stroke-linecap:round;stroke-linejoin:round;paint-order:stroke markers fill"
         id="rect4"
         width="103.27294"
         height="230.68034"
         x="50.294754"
         y="28.322325" /></clipPath></defs><g
     inkscape:label="Layer 1"
     inkscape:groupmode="layer"
     id="layer1"
     transform="translate(-52.726905,-28.64735)"><path
       d="m 93.888217,70.797749 c -19.60314,-0.0605 -19.74502,-0.05758 -22.02863,0.525033 -4.76805,1.21646 -8.008146,2.95417 -11.320756,6.07043 -3.54606,3.33589 -5.811214,7.069383 -7.200594,11.869043 l -0.611332,2.112016 v 33.072919 c 0,30.82871 0.0313,33.14175 0.459403,34.08836 1.3058,2.88734 4.006243,4.66043 7.419703,4.87153 2.72302,0.1684 4.596403,-0.56184 6.563423,-2.5585 2.58929,-2.62828 2.389223,-0.12149 2.553333,-31.96962 l 0.143144,-27.8474 h 1.68 1.680001 l 0.06925,75.20782 0.06925,75.20781 0.56689,1.38079 c 1.25175,3.0497 3.882775,5.94506 6.777365,6.78512 1.16264,0.33742 -0.246088,0.0499 -14.752588,0.17156 -8.87677,0.0745 7.494323,0.1348 36.380211,0.13436 30.89313,-4.8e-4 43.36795,-0.057 30.29479,-0.13746 -12.22375,-0.0753 -22.09241,-0.0197 -21.91597,-0.0548 2.37759,-0.47342 4.87893,-2.44919 5.96139,-4.51859 0.56508,-1.08029 0.59039,-1.48104 0.79685,-12.75685 0.1172,-6.40292 0.15383,-17.2376 0.0811,-24.07708 -0.0727,-6.83947 -0.0443,-16.90026 0.0636,-22.35729 l 0.19637,-9.92188 11.60136,-0.18035 c 6.38087,-0.0992 11.67108,-0.25006 11.75588,-0.33486 0.18279,-0.18278 0.42846,0.68083 -11.04016,-38.77541 -12.89066,-44.3486 -14.03687,-48.347065 -14.03687,-48.954635 0,-0.51114 0.13141,-0.539355 2.17248,-0.467155 l 2.17299,0.077 0.4899,1.5875 c 0.26936,0.87312 2.63305,8.79078 5.25291,17.59479 10.27272,34.52147 9.61334,32.51733 11.35434,34.50022 1.96029,2.23263 5.56143,2.94119 8.34988,1.64279 3.65127,-1.70014 5.29008,-5.53512 4.2509,-9.94926 -0.38133,-1.61979 -3.9125,-13.31699 -12.61938,-41.80417 -2.0682,-6.76672 -3.87874,-12.719842 -4.02353,-13.229162 -0.7643,-2.68858 -3.86316,-7.364138 -6.58874,-9.940478 -3.34531,-3.16215 -6.69136,-5.097982 -10.92543,-6.321062 l -2.36317,-0.682645 z m 2.104264,114.635901 h 1.286743 c 0.70774,0 1.652424,0.0729 2.099614,0.16226 l 0.813382,0.16278 0.0796,33.90232 0.0801,33.90284 0.70538,1.32292 c 1.05003,1.96944 2.77023,3.50507 4.74958,4.24005 l 1.68879,0.62684 -10.451047,-0.001 -10.451041,-10e-4 1.597318,-0.50643 c 3.12417,-0.99087 5.798683,-3.49019 7.069853,-6.60735 l 0.593245,-1.45521 0.06925,-32.87447 z"
       style="baseline-shift:baseline;display:inline;overflow:visible;fill:#ffc0cb;fill-opacity:1;stroke:none;stroke-width:1.2;stroke-dasharray:none;stroke-opacity:1;enable-background:accumulate;stop-color:#000000;stop-opacity:1"
       id="path6"
       clip-path="url(#clipPath3)" /><path
       d="M 93.854627,28.64735 A 18.521778,19.270132 0 0 0 75.333277,47.917492 18.521778,19.270132 0 0 0 93.854627,67.187634 18.521778,19.270132 0 0 0 112.37649,47.917492 18.521778,19.270132 0 0 0 93.854627,28.64735 Z"
       style="baseline-shift:baseline;display:inline;overflow:visible;fill:#ffc0cb;fill-opacity:1;stroke:none;stroke-width:1.2;stroke-linecap:round;stroke-linejoin:round;stroke-dasharray:none;stroke-opacity:1;paint-order:stroke markers fill;enable-background:accumulate;stop-color:#000000;stop-opacity:1"
       id="path5"
       clip-path="url(#clipPath1)" /></g></svg>
